<svg width="100" height="101" viewBox="0 0 100 101" fill="none" xmlns="http://www.w3.org/2000/svg">
<path d="M80 20.1754H52.5C51.1 20.1754 50 21.2851 50 22.6973C50 24.1096 51.1 25.2193 52.5 25.2193H80V75.6579H52.5C51.1 75.6579 50 76.7675 50 78.1798C50 79.5921 51.1 80.7017 52.5 80.7017H80C82.75 80.7017 85 78.432 85 75.6579V25.2193C85 22.4452 82.75 20.1754 80 20.1754Z" fill="#363B96"/>
<path d="M45.75 34.5504C44.75 35.5591 44.75 37.1227 45.75 38.1315L55.45 47.9166H17.5C16.1 47.9166 15 49.0262 15 50.4385C15 51.8508 16.1 52.9604 17.5 52.9604H55.45L45.75 62.7455C44.75 63.7543 44.75 65.3179 45.75 66.3267C46.75 67.3354 48.3 67.3354 49.3 66.3267L63.25 52.2543C64.25 51.2455 64.25 49.6819 63.25 48.6732L49.25 34.5504C48.3 33.592 46.7 33.592 45.75 34.5504V34.5504Z" fill="#363B96"/>
</svg>
