<svg width="1161" height="360" viewBox="0 0 1161 360" fill="none" xmlns="http://www.w3.org/2000/svg">
    <path d="M344.4 14.2C352.133 7.79999 360.933 4.6 370.8 4.6C380.667 4.6 385.6 6.59999 385.6 10.6C385.6 12.2 384.4 14.6 382 17.8C379.867 22.6 369.867 40.7333 352 72.2C305.333 153.8 282 208.2 282 235.4C282 237.533 282.533 238.6 283.6 238.6C285.2 238.6 287.867 235.933 291.6 230.6C302.533 211.667 316.533 189.933 333.6 165.4C350.667 140.867 366.8 119.267 382 100.6C397.2 81.9333 414.4 64.4666 433.6 48.2C452.8 31.9333 470.267 21.8 486 17.8C512.133 13.5333 529.067 11.4 536.8 11.4C537.6 11.6666 538 12.3333 538 13.4C538 14.2 536.533 15.4 533.6 17C503.467 33.8 466 65.8 421.2 113C376.667 159.933 336.4 208.2 300.4 257.8C290.8 274.067 283.333 284.2 278 288.2C272.667 292.2 266.267 294.2 258.8 294.2C244.933 294.2 238 279.533 238 250.2C238 237.4 240.533 224.333 245.6 211C264.267 161.133 281.733 125.4 298 103.8C307.067 90.4667 311.6 83.1333 311.6 81.8C311.6 81 310 82.6 306.8 86.6C240.4 170.067 193.467 224.733 166 250.6C147.067 270.333 125.6 290.6 101.6 311.4C77.6 332.2 58.4 346.467 44 354.2C39.4667 357.933 34.6667 359.8 29.6 359.8C24.5334 359.8 18.4 357.667 11.2 353.4C4.00003 349.133 0.400024 344.2 0.400024 338.6C0.400024 335.667 2.00002 333 5.20002 330.6L70.8 275.4C74.8 271.933 77.3334 270.2 78.4 270.2C79.2 270.2 79.6 270.733 79.6 271.8C79.6 272.6 79.2 273.8 78.4 275.4C77.6 277 76.4 278.733 74.8 280.6C72.9334 282.467 71.0667 284.2 69.2 285.8L62.4 293C54.1334 301.267 50 305.8 50 306.6C50 307.667 50.2667 308.2 50.8 308.2C51.3334 308.2 52.6667 307.4 54.8 305.8C80.4 288.2 117.333 255.133 165.6 206.6C213.867 157.8 255.733 113.533 291.2 73.8L344.4 14.2Z" fill="#363B96"/>
    <path d="M575.972 19C595.172 6.73331 611.439 0.599976 624.772 0.599976C637.039 0.599976 644.772 5.26665 647.972 14.6C649.039 17.8 649.572 20.3333 649.572 22.2C649.572 32.3333 643.839 48.2 632.372 69.8C620.905 91.4 605.705 114.867 586.772 140.2C567.839 165.267 547.439 189.4 525.572 212.6C503.705 235.8 480.905 255.133 457.172 270.6C433.439 286.067 412.639 293.8 394.772 293.8C382.239 293.8 370.639 288.467 359.972 277.8C349.305 267.133 343.972 254.2 343.972 239C343.972 223.533 348.239 206.333 356.772 187.4C365.305 168.2 377.039 148.867 391.972 129.4C407.172 109.933 423.839 91.8 441.972 75C460.105 57.9333 479.839 44.0667 501.172 33.4C522.772 22.7333 543.305 17.4 562.772 17.4C568.105 17.4 572.505 17.9333 575.972 19ZM384.372 263.4C397.972 263.4 424.505 246.067 463.972 211.4C503.439 176.733 539.839 140.6 573.172 103C606.772 65.1333 623.572 41.5333 623.572 32.2C623.572 31.4 623.039 31 621.972 31C612.905 31 600.105 36.3333 583.572 47C567.305 57.6667 551.705 69.6666 536.772 83C521.839 96.3333 508.905 108.2 497.972 118.6C487.305 129 481.172 135.4 479.572 137.8C477.972 140.2 476.639 141.4 475.572 141.4C475.039 141.4 474.772 140.733 474.772 139.4L475.572 133.4C478.505 123.8 487.439 108.2 502.372 86.6L509.972 75.4C511.839 71.9333 512.772 69.9333 512.772 69.4C512.772 68.6 512.505 68.2 511.972 68.2C509.839 68.2 506.239 70.4667 501.172 75C481.172 93.1333 463.439 111.533 447.972 130.2C432.505 148.6 420.639 164.6 412.372 178.2C404.372 191.533 397.839 204.333 392.772 216.6C384.772 235.267 380.772 247.8 380.772 254.2C380.772 260.333 381.972 263.4 384.372 263.4Z" fill="#363B96"/>
    <path d="M558.8 77.8C555.067 77.8 548.533 74.2 539.2 67C529.6 59.8 524.8 53.9333 524.8 49.4C524.8 44.8667 528 41.4 534.4 39C546.667 33.6667 559.067 29.5333 571.6 26.6L577.6 25.4C578.933 24.8666 580.133 24.6 581.2 24.6C583.067 24.6 584 25.6666 584 27.8C584 29.6667 585.067 30.6 587.2 30.6C589.333 30.6 599.067 28.7333 616.4 25C668.4 14.3333 717.6 8.99999 764 8.99999C791.2 8.99999 814.267 12.3333 833.2 19C852.4 25.4 862 34.6 862 46.6C862 49.2666 858.267 50.6 850.8 50.6C843.6 50.6 834.8 50.7333 824.4 51C814.267 51.2667 801.467 51.6667 786 52.2C749.733 53.8 731.6 57.4 731.6 63C731.6 64.0667 731.867 64.8667 732.4 65.4C732.4 66.7333 730.933 69 728 72.2C725.067 75.1333 720.533 79.9333 714.4 86.6C708.267 93.2667 696.8 106.067 680 125C663.2 143.667 647.733 161.267 633.6 177.8C597.067 221 571.867 254.333 558 277.8C557.2 286.867 554.533 291.4 550 291.4C546.533 291.4 542 288.733 536.4 283.4C530.533 278.067 527.6 271.533 527.6 263.8C527.6 249.4 538.4 229.133 560 203C581.6 176.867 624.267 134.867 688 77C690.933 74.0666 693.6 71.6666 696 69.8C699.733 66.8666 701.6 65.1333 701.6 64.6C701.6 64.0667 700.8 63.8 699.2 63.8C697.6 63.8 694.4 64.0667 689.6 64.6L567.2 76.6C565.333 77.4 562.533 77.8 558.8 77.8Z" fill="#363B96"/>
    <path d="M647.416 67.4C647.416 63.4 650.082 59.9333 655.416 57L702.216 38.6C703.282 38.0667 704.749 37.8 706.616 37.8C708.749 37.8 710.616 38.7333 712.216 40.6C713.816 42.4667 715.549 43.4 717.416 43.4C719.282 43.4 723.149 42.7333 729.016 41.4C735.149 39.8 743.282 37.9333 753.416 35.8C763.549 33.4 774.882 31.1333 787.416 29C816.749 23.9333 847.282 21.4 879.016 21.4C916.616 21.4 943.549 24.2 959.816 29.8C966.216 32.2 971.549 35.5333 975.816 39.8C980.349 43.8 982.616 48.7333 982.616 54.6C982.616 58.0666 980.216 59.8 975.416 59.8C908.749 61.6667 854.216 65.9333 811.816 72.6C807.549 73.1333 805.416 74.6 805.416 77C805.416 77.8 805.416 78.6 805.416 79.4C805.682 79.9333 804.749 81.4 802.616 83.8L757.416 132.2C755.549 134.067 754.616 135.533 754.616 136.6C754.616 137.4 754.882 137.8 755.416 137.8C756.216 137.8 757.949 137.533 760.616 137C777.949 135.933 793.949 135.4 808.616 135.4C823.282 135.4 831.682 136.2 833.816 137.8C845.549 146.6 852.349 152.333 854.216 155C856.349 157.667 857.416 159.8 857.416 161.4C857.416 164.867 854.482 167 848.616 167.8C778.216 174.733 740.216 178.2 734.616 178.2C729.016 177.933 725.416 177.8 723.816 177.8C719.549 177.8 714.749 181.133 709.416 187.8L660.616 252.6C659.282 254.733 658.616 256.333 658.616 257.4C658.616 258.2 659.149 258.6 660.216 258.6C661.282 258.6 662.882 258.067 665.016 257C690.082 253 713.416 251 735.016 251C756.882 251 773.149 251.667 783.816 253C798.482 253 814.216 263.8 831.016 285.4C832.349 287.267 833.016 289 833.016 290.6C833.016 292.2 831.016 293 827.016 293C760.616 293 710.082 294.333 675.416 297C674.082 297.267 672.349 297.4 670.216 297.4C658.749 297.4 650.882 294.733 646.616 289.4C645.816 287.8 644.482 287 642.616 287C640.749 287 639.149 287.933 637.816 289.8C636.216 291.667 635.016 292.6 634.216 292.6C633.416 292.6 631.816 291.8 629.416 290.2C627.016 288.6 624.616 285.8 622.216 281.8C619.549 278.067 618.216 274.067 618.216 269.8C618.216 265.267 619.149 261.133 621.016 257.4C622.616 253.667 624.882 248.867 627.816 243C630.482 237.133 636.616 227.133 646.216 213C656.082 198.6 666.349 186.333 677.016 176.2C678.349 174.867 679.016 173.667 679.016 172.6C679.016 171.267 677.549 170.6 674.616 170.6C671.949 170.6 669.149 169.667 666.216 167.8C663.549 165.667 662.216 162.867 662.216 159.4C662.216 155.667 666.882 152.6 676.216 150.2L697.816 144.6C698.082 144.6 698.216 144.6 698.216 144.6C702.482 144.6 706.749 141.8 711.016 136.2C741.949 106.067 760.882 89.2667 767.816 85.8C770.216 84.2 771.416 83 771.416 82.2C771.416 81.1333 770.616 80.6 769.016 80.6C767.416 80.6 766.082 80.7333 765.016 81C740.216 85 720.482 87 705.816 87C691.149 87 680.482 86.3333 673.816 85C667.149 83.6667 662.216 82.0667 659.016 80.2C652.082 75.6667 648.349 72.0667 647.816 69.4L647.416 67.4Z" fill="#363B96"/>
    <path d="M1003.48 174.2L962.681 175.8C937.615 175.8 920.681 175 911.881 173.4C903.348 171.533 895.615 169.4 888.681 167C882.015 164.6 876.681 161.8 872.681 158.6C862.815 151.133 857.881 141.133 857.881 128.6C857.881 124.867 860.148 119.267 864.681 111.8C869.215 104.333 876.948 95.5333 887.881 85.4C899.081 75 912.281 65.2667 927.481 56.2C942.948 46.8666 963.215 38.7333 988.281 31.8C1013.35 24.8667 1040.55 20.8667 1069.88 19.8C1080.28 19.8 1091.21 21.1333 1102.68 23.8C1114.41 26.2 1124.01 29.1333 1131.48 32.6C1139.21 36.0667 1146.01 41.4 1151.88 48.6C1157.75 55.5333 1160.68 63.6667 1160.68 73C1160.68 80.4667 1153.48 88.4667 1139.08 97C1123.08 106.6 1101.88 111.4 1075.48 111.4C1049.35 111.4 1036.28 109.533 1036.28 105.8C1036.28 102.867 1043.88 99.4 1059.08 95.4C1074.55 91.4 1090.01 86.7333 1105.48 81.4C1120.95 76.0667 1128.68 70.0667 1128.68 63.4C1128.68 59.9333 1122.81 58.2 1111.08 58.2C1033.75 58.2 967.348 78.2 911.881 118.2C901.481 125.933 896.281 132.6 896.281 138.2C896.281 147 924.015 151.4 979.481 151.4C1029.35 151.933 1054.28 165.267 1054.28 191.4C1054.28 210.067 1041.61 227.8 1016.28 244.6C990.948 261.4 961.081 274.467 926.681 283.8C892.548 293.133 860.415 297.933 830.281 298.2C816.148 298.2 801.215 294.467 785.481 287C769.748 279.533 761.881 270.467 761.881 259.8C761.881 256.333 764.815 254.467 770.681 254.2C802.148 250.733 822.281 247 831.081 243C833.215 242.467 834.948 242.2 836.281 242.2C837.615 242.2 838.281 242.467 838.281 243C838.281 244.067 836.681 245.8 833.481 248.2C830.548 249.8 827.348 251.267 823.881 252.6C816.415 255.267 812.681 257 812.681 257.8C812.681 258.6 815.348 259 820.681 259C826.015 259 839.481 256.867 861.081 252.6C882.681 248.333 905.748 242.867 930.281 236.2C955.081 229.533 976.948 221.267 995.881 211.4C1014.81 201.533 1024.28 192.067 1024.28 183C1024.28 177.133 1017.35 174.2 1003.48 174.2Z" fill="#363B96"/>
</svg>
